<svg height="100%" width="100%" id="svg" viewBox="0 0 1440 700" xmlns="http://www.w3.org/2000/svg" class="transition duration-300 ease-in-out delay-150"><defs><linearGradient id="gradient"><stop offset="5%" stop-color="#002bdc66"></stop><stop offset="95%" stop-color="#32ded466"></stop></linearGradient></defs><path d="M 0,700 C 0,700 0,175 0,175 C 78.09569377990434,208.79904306220095 156.19138755980867,242.59808612440193 259,220 C 361.8086124401913,197.40191387559807 489.3301435406697,118.40669856459331 593,124 C 696.6698564593303,129.5933014354067 776.488038277512,219.77511961722487 877,225 C 977.511961722488,230.22488038277513 1098.7177033492824,150.49282296650716 1196,128 C 1293.2822966507176,105.50717703349282 1366.6411483253587,140.25358851674642 1440,175 C 1440,175 1440,700 1440,700 Z" stroke="none" stroke-width="0" fill="url(#gradient)" class="transition-all duration-300 ease-in-out delay-150"></path><defs><linearGradient id="gradient"><stop offset="5%" stop-color="#002bdc88"></stop><stop offset="95%" stop-color="#32ded488"></stop></linearGradient></defs><path d="M 0,700 C 0,700 0,350 0,350 C 95.24401913875596,340.9473684210526 190.48803827751192,331.89473684210526 278,336 C 365.5119617224881,340.10526315789474 445.2918660287082,357.3684210526316 559,346 C 672.7081339712918,334.6315789473684 820.3444976076554,294.6315789473684 908,291 C 995.6555023923446,287.3684210526316 1023.33014354067,320.1052631578948 1102,336 C 1180.66985645933,351.8947368421052 1310.334928229665,350.9473684210526 1440,350 C 1440,350 1440,700 1440,700 Z" stroke="none" stroke-width="0" fill="url(#gradient)" class="transition-all duration-300 ease-in-out delay-150"></path><defs><linearGradient id="gradient"><stop offset="5%" stop-color="#002bdcff"></stop><stop offset="95%" stop-color="#32ded4ff"></stop></linearGradient></defs><path d="M 0,700 C 0,700 0,525 0,525 C 88.60287081339715,520.8181818181818 177.2057416267943,516.6363636363636 275,499 C 372.7942583732057,481.3636363636364 479.77990430622003,450.2727272727272 582,471 C 684.22009569378,491.7272727272728 781.6746411483255,564.2727272727274 888,570 C 994.3253588516745,575.7272727272726 1109.5215311004786,514.6363636363636 1203,496 C 1296.4784688995214,477.3636363636364 1368.2392344497607,501.1818181818182 1440,525 C 1440,525 1440,700 1440,700 Z" stroke="none" stroke-width="0" fill="url(#gradient)" class="transition-all duration-300 ease-in-out delay-150"></path></svg>