<svg height="100%" width="100%" id="svg" viewBox="0 0 1440 700" xmlns="http://www.w3.org/2000/svg" class="transition duration-300 ease-in-out delay-150"><defs><linearGradient id="gradient"><stop offset="5%" stop-color="#ff690088"></stop><stop offset="95%" stop-color="#32ded488"></stop></linearGradient></defs><path d="M 0,700 C 0,700 0,233 0,233 C 72.31578947368422,201.1531100478469 144.63157894736844,169.3062200956938 241,181 C 337.36842105263156,192.6937799043062 457.7894736842105,247.9282296650718 569,261 C 680.2105263157895,274.0717703349282 782.2105263157895,244.98086124401914 884,224 C 985.7894736842105,203.01913875598086 1087.3684210526314,190.14832535885165 1180,193 C 1272.6315789473686,195.85167464114835 1356.3157894736842,214.42583732057417 1440,233 C 1440,233 1440,700 1440,700 Z" stroke="none" stroke-width="0" fill="url(#gradient)" class="transition-all duration-300 ease-in-out delay-150"></path><defs><linearGradient id="gradient"><stop offset="5%" stop-color="#ff6900ff"></stop><stop offset="95%" stop-color="#32ded4ff"></stop></linearGradient></defs><path d="M 0,700 C 0,700 0,466 0,466 C 104.29665071770336,467.511961722488 208.59330143540672,469.02392344497605 317,460 C 425.4066985645933,450.97607655502395 537.9234449760767,431.4162679425838 613,430 C 688.0765550239233,428.5837320574162 725.7129186602871,445.311004784689 811,441 C 896.2870813397129,436.688995215311 1029.2248803827752,411.33971291866027 1142,412 C 1254.7751196172248,412.66028708133973 1347.3875598086124,439.33014354066984 1440,466 C 1440,466 1440,700 1440,700 Z" stroke="none" stroke-width="0" fill="url(#gradient)" class="transition-all duration-300 ease-in-out delay-150"></path></svg>